<svg xmlns="http://www.w3.org/2000/svg" width="512" height="520" viewBox="0 0 512 520" version="1.1">
	<path d="M 217 0.370 C 217 1.021, 197.447 76.868, 196.417 80.211 C 195.986 81.610, 193.764 80.403, 184.195 73.574 C 177.763 68.983, 172.363 65.350, 172.196 65.501 C 172.028 65.652, 172.679 87.136, 173.642 113.243 C 175.335 159.134, 175.332 160.977, 173.560 168.738 L 171.726 176.765 85.881 208.067 C 38.665 225.282, 0.139 239.458, 0.267 239.568 C 0.395 239.678, 18.725 251.339, 41 265.480 C 63.275 279.622, 82.090 291.755, 82.812 292.444 C 83.878 293.460, 81.020 296.015, 67.574 306.065 C 57.358 313.701, 51.499 318.691, 52.263 319.105 C 52.943 319.474, 76.092 326.174, 103.705 333.994 L 153.909 348.213 154.416 352.357 C 154.695 354.635, 156.157 393.075, 157.666 437.778 C 159.783 500.486, 160.689 518.950, 161.631 518.588 C 162.569 518.228, 226.184 466.227, 234.113 459.339 C 235.570 458.074, 236.572 460.434, 244.461 483.719 C 249.265 497.899, 253.538 510.118, 253.957 510.873 C 254.470 511.801, 265.670 495.909, 288.488 461.873 C 307.062 434.168, 322.538 411.190, 322.879 410.811 C 323.221 410.432, 357.919 419.963, 399.987 431.990 C 442.055 444.018, 476.541 453.778, 476.622 453.679 C 476.704 453.581, 470.309 437.125, 462.412 417.111 C 454.515 397.098, 448.293 380.335, 448.586 379.861 C 448.878 379.388, 460.829 379, 475.142 379 C 491.259 379, 501.040 378.636, 500.833 378.044 C 500.650 377.518, 482.050 353.595, 459.500 324.880 C 436.950 296.166, 418.640 272.215, 418.810 271.656 C 418.981 271.097, 439.836 239.863, 465.155 202.248 C 490.474 164.633, 510.946 133.612, 510.647 133.314 C 510.349 133.016, 494.502 133.744, 475.432 134.932 C 456.363 136.121, 440.613 136.947, 440.434 136.768 C 440.255 136.588, 442.503 128.805, 445.430 119.471 C 448.356 110.137, 450.682 102.413, 450.598 102.306 C 450.514 102.200, 425.483 111.299, 394.973 122.527 C 356.059 136.848, 338.022 143.025, 334.549 143.221 L 329.599 143.500 282.228 83 C 256.174 49.725, 230.839 17.372, 225.929 11.103 C 221.018 4.835, 217 0.005, 217 0.370" stroke="none" fill="black" fill-rule="evenodd"/>
</svg>